<svg xmlns="http://www.w3.org/2000/svg" xmlns:xlink="http://www.w3.org/1999/xlink" width="500" zoomAndPan="magnify" viewBox="0 0 375 374.999991" height="500" preserveAspectRatio="xMidYMid meet" version="1.0"><defs><clipPath id="9e569f75ab"><path d="M 63.355469 63.355469 L 173 63.355469 L 173 173 L 63.355469 173 Z M 63.355469 63.355469 " clip-rule="nonzero"/></clipPath><clipPath id="bdc8e800f0"><path d="M 202 63.355469 L 311.605469 63.355469 L 311.605469 173 L 202 173 Z M 202 63.355469 " clip-rule="nonzero"/></clipPath><clipPath id="fbd18685ed"><path d="M 63.355469 202 L 173 202 L 173 311.605469 L 63.355469 311.605469 Z M 63.355469 202 " clip-rule="nonzero"/></clipPath><clipPath id="e8ccd0d50d"><path d="M 202 202 L 311.605469 202 L 311.605469 311.605469 L 202 311.605469 Z M 202 202 " clip-rule="nonzero"/></clipPath></defs><g clip-path="url(#9e569f75ab)"><path fill="#107c10" d="M 167.636719 63.355469 L 68.324219 63.355469 C 65.582031 63.355469 63.355469 65.582031 63.355469 68.324219 L 63.355469 167.636719 C 63.355469 170.378906 65.582031 172.601562 68.324219 172.601562 L 167.636719 172.601562 C 170.378906 172.601562 172.601562 170.378906 172.601562 167.636719 L 172.601562 68.324219 C 172.601562 65.582031 170.378906 63.355469 167.636719 63.355469 Z M 167.636719 63.355469 " fill-opacity="1" fill-rule="nonzero"/></g><g clip-path="url(#bdc8e800f0)"><path fill="#107c10" d="M 306.675781 63.355469 L 207.363281 63.355469 C 204.617188 63.355469 202.394531 65.582031 202.394531 68.324219 L 202.394531 167.636719 C 202.394531 170.378906 204.617188 172.601562 207.363281 172.601562 L 306.675781 172.601562 C 309.421875 172.601562 311.640625 170.378906 311.640625 167.636719 L 311.640625 68.324219 C 311.640625 65.582031 309.421875 63.355469 306.675781 63.355469 Z M 306.675781 63.355469 " fill-opacity="1" fill-rule="nonzero"/></g><g clip-path="url(#fbd18685ed)"><path fill="#107c10" d="M 167.636719 202.394531 L 68.324219 202.394531 C 65.582031 202.394531 63.355469 204.617188 63.355469 207.363281 L 63.355469 306.675781 C 63.355469 309.421875 65.582031 311.640625 68.324219 311.640625 L 167.636719 311.640625 C 170.378906 311.640625 172.601562 309.421875 172.601562 306.675781 L 172.601562 207.363281 C 172.601562 204.617188 170.378906 202.394531 167.636719 202.394531 Z M 167.636719 202.394531 " fill-opacity="1" fill-rule="nonzero"/></g><g clip-path="url(#e8ccd0d50d)"><path fill="#107c10" d="M 306.675781 202.394531 L 207.363281 202.394531 C 204.617188 202.394531 202.394531 204.617188 202.394531 207.363281 L 202.394531 306.675781 C 202.394531 309.421875 204.617188 311.640625 207.363281 311.640625 L 306.675781 311.640625 C 309.421875 311.640625 311.640625 309.421875 311.640625 306.675781 L 311.640625 207.363281 C 311.640625 204.617188 309.421875 202.394531 306.675781 202.394531 Z M 306.675781 202.394531 " fill-opacity="1" fill-rule="nonzero"/></g></svg>